<svg width="31" height="40" viewBox="0 0 31 40" fill="none" xmlns="http://www.w3.org/2000/svg">
<path d="M9.07 19.994L28.204 4.87097C28.5313 4.64579 28.799 4.34439 28.9839 3.99275C29.1688 3.6411 29.2654 3.24977 29.2654 2.85247C29.2654 2.45517 29.1688 2.06383 28.9839 1.71219C28.799 1.36054 28.5313 1.05914 28.204 0.833968C27.4609 0.291332 26.5646 -0.00109863 25.6445 -0.00109863C24.7244 -0.00109863 23.8281 0.291332 23.085 0.833968L1.404 17.97C1.08838 18.1886 0.828724 18.4786 0.646069 18.8163C0.463413 19.154 0.3629 19.53 0.352674 19.9139C0.342448 20.2977 0.422797 20.6785 0.58721 21.0255C0.751623 21.3725 0.995473 21.6758 1.299 21.911L23.072 39.166C23.8154 39.7077 24.7116 39.9996 25.6315 39.9996C26.5514 39.9996 27.4476 39.7077 28.191 39.166C28.5183 38.9408 28.786 38.6394 28.9709 38.2878C29.1558 37.9361 29.2524 37.5448 29.2524 37.1475C29.2524 36.7502 29.1558 36.3588 28.9709 36.0072C28.786 35.6555 28.5183 35.3541 28.191 35.129L9.07 19.994Z" fill="#00AEFF"/>
<path d="M26.339 23.844C28.8243 23.844 30.839 21.8293 30.839 19.344C30.839 16.8587 28.8243 14.844 26.339 14.844C23.8537 14.844 21.839 16.8587 21.839 19.344C21.839 21.8293 23.8537 23.844 26.339 23.844Z" fill="#00AEFF"/>
</svg>
