<svg width="22" height="24" viewBox="0 0 22 24" fill="none" xmlns="http://www.w3.org/2000/svg">
<path d="M0.200012 21.75C0.200277 22.3467 0.437415 22.9188 0.859315 23.3407C1.28121 23.7626 1.85336 23.9997 2.45001 24H18.95C19.5467 23.9997 20.1188 23.7626 20.5407 23.3407C20.9626 22.9188 21.1997 22.3467 21.2 21.75V9H0.200012V21.75ZM15.2 12.563C15.2003 12.4138 15.2597 12.2707 15.3652 12.1652C15.4707 12.0597 15.6138 12.0003 15.763 12H17.638C17.7872 12.0003 17.9303 12.0597 18.0358 12.1652C18.1413 12.2707 18.2007 12.4138 18.201 12.563V14.438C18.2007 14.5871 18.1415 14.73 18.0362 14.8355C17.9309 14.941 17.7881 15.0005 17.639 15.001H15.763C15.6138 15.0007 15.4707 14.9413 15.3652 14.8358C15.2597 14.7303 15.2003 14.5872 15.2 14.438V12.563ZM15.2 18.563C15.2003 18.4138 15.2597 18.2707 15.3652 18.1652C15.4707 18.0597 15.6138 18.0003 15.763 18H17.638C17.7872 18.0003 17.9303 18.0597 18.0358 18.1652C18.1413 18.2707 18.2007 18.4138 18.201 18.563V20.438C18.2007 20.5871 18.1415 20.73 18.0362 20.8355C17.9309 20.941 17.7881 21.0005 17.639 21.001H15.763C15.6138 21.0007 15.4707 20.9413 15.3652 20.8358C15.2597 20.7303 15.2003 20.5872 15.2 20.438V18.563ZM9.20001 12.563C9.20028 12.4138 9.25968 12.2707 9.3652 12.1652C9.47073 12.0597 9.61378 12.0003 9.76301 12H11.638C11.7872 12.0003 11.9303 12.0597 12.0358 12.1652C12.1413 12.2707 12.2007 12.4138 12.201 12.563V14.438C12.2007 14.5871 12.1415 14.73 12.0362 14.8355C11.9309 14.941 11.7881 15.0005 11.639 15.001H9.76301C9.61378 15.0007 9.47073 14.9413 9.3652 14.8358C9.25968 14.7303 9.20028 14.5872 9.20001 14.438V12.563ZM9.20001 18.563C9.20028 18.4138 9.25968 18.2707 9.3652 18.1652C9.47073 18.0597 9.61378 18.0003 9.76301 18H11.638C11.7872 18.0003 11.9303 18.0597 12.0358 18.1652C12.1413 18.2707 12.2007 18.4138 12.201 18.563V20.438C12.2007 20.5871 12.1415 20.73 12.0362 20.8355C11.9309 20.941 11.7881 21.0005 11.639 21.001H9.76301C9.61378 21.0007 9.47073 20.9413 9.3652 20.8358C9.25968 20.7303 9.20028 20.5872 9.20001 20.438V18.563ZM3.20001 12.563C3.20028 12.4138 3.25968 12.2707 3.3652 12.1652C3.47073 12.0597 3.61378 12.0003 3.76301 12H5.63801C5.78707 12.0005 5.92987 12.06 6.03518 12.1655C6.14049 12.271 6.19975 12.4139 6.20001 12.563V14.438C6.19949 14.5869 6.14011 14.7295 6.03482 14.8348C5.92954 14.9401 5.7869 14.9995 5.63801 15H3.76301C3.61395 14.9997 3.47105 14.9405 3.36556 14.8352C3.26006 14.7299 3.20054 14.5871 3.20001 14.438V12.563ZM3.20001 18.563C3.20028 18.4138 3.25968 18.2707 3.3652 18.1652C3.47073 18.0597 3.61378 18.0003 3.76301 18H5.63801C5.78707 18.0005 5.92987 18.06 6.03518 18.1655C6.14049 18.271 6.19975 18.4139 6.20001 18.563V20.438C6.19949 20.5869 6.14011 20.7295 6.03482 20.8348C5.92954 20.9401 5.7869 20.9995 5.63801 21H3.76301C3.61395 20.9997 3.47105 20.9405 3.36556 20.8352C3.26006 20.7299 3.20054 20.5871 3.20001 20.438V18.563ZM18.95 3H16.7V0.75C16.6995 0.55125 16.6203 0.360791 16.4798 0.220253C16.3392 0.079715 16.1488 0.000527891 15.95 0H14.45C14.2513 0.000527891 14.0608 0.079715 13.9203 0.220253C13.7797 0.360791 13.7005 0.55125 13.7 0.75V3H7.70001V0.75C7.69948 0.55125 7.6203 0.360791 7.47976 0.220253C7.33922 0.079715 7.14876 0.000527891 6.95001 0L5.45001 0C5.25126 0.000527891 5.0608 0.079715 4.92027 0.220253C4.77973 0.360791 4.70054 0.55125 4.70001 0.75V3H2.45001C1.85336 3.00027 1.28121 3.2374 0.859315 3.6593C0.437415 4.0812 0.200277 4.65334 0.200012 5.25L0.200012 7.5H21.2V5.25C21.1997 4.65334 20.9626 4.0812 20.5407 3.6593C20.1188 3.2374 19.5467 3.00027 18.95 3Z" fill="#00A1FF"/>
</svg>
