<svg width="46" height="24" viewBox="0 0 46 24" fill="none" xmlns="http://www.w3.org/2000/svg">
<path d="M10.9585 11.5229H2.90332V20H0.37207V0.804688H12.2637V2.8877H2.90332V9.45312H10.9585V11.5229ZM23.6543 14.9902H15.6123L13.8062 20H11.1958L18.5259 0.804688H20.7407L28.084 20H25.4868L23.6543 14.9902ZM16.377 12.9072H22.9028L19.6333 3.9292L16.377 12.9072ZM45.1699 11.022C45.1699 12.8765 44.8755 14.4761 44.2866 15.8208C43.6978 17.1567 42.8716 18.2026 41.8081 18.9585L45.2358 21.6479L43.5088 23.2432L39.4614 20.0264C38.8286 20.1846 38.1606 20.2637 37.4575 20.2637C35.9458 20.2637 34.6055 19.8945 33.4365 19.1562C32.2676 18.4092 31.3579 17.3501 30.7075 15.979C30.0659 14.5991 29.7363 13.0039 29.7188 11.1934V9.80908C29.7188 7.96338 30.0396 6.33301 30.6812 4.91797C31.3228 3.50293 32.228 2.42188 33.397 1.6748C34.5747 0.918945 35.9194 0.541016 37.4312 0.541016C38.978 0.541016 40.3359 0.914551 41.5049 1.66162C42.6826 2.40869 43.5879 3.48535 44.2207 4.8916C44.8535 6.28906 45.1699 7.92383 45.1699 9.7959V11.022ZM42.6387 9.78271C42.6387 7.52393 42.186 5.78369 41.2808 4.56201C40.3843 3.33154 39.1011 2.71631 37.4312 2.71631C35.8403 2.71631 34.5835 3.32715 33.6606 4.54883C32.7466 5.76172 32.2764 7.44922 32.25 9.61133V11.022C32.25 13.2192 32.707 14.9507 33.6211 16.2163C34.5439 17.4819 35.8228 18.1147 37.4575 18.1147C39.0923 18.1147 40.3579 17.5215 41.2544 16.335C42.1509 15.1396 42.6123 13.4302 42.6387 11.2065V9.78271Z" fill="#10B0E7"/>
</svg>
