<svg width="48" height="36" viewBox="0 0 48 36" fill="none" xmlns="http://www.w3.org/2000/svg">
<path d="M44.5 0H3.5C1.567 0 0 1.567 0 3.5C0 5.433 1.567 7 3.5 7H44.5C46.433 7 48 5.433 48 3.5C48 1.567 46.433 0 44.5 0Z" fill="white"/>
<path d="M44.5 29H3.5C1.567 29 0 30.567 0 32.5C0 34.433 1.567 36 3.5 36H44.5C46.433 36 48 34.433 48 32.5C48 30.567 46.433 29 44.5 29Z" fill="white"/>
<path d="M38 15H10C8.34315 15 7 16.3431 7 18C7 19.6569 8.34315 21 10 21H38C39.6569 21 41 19.6569 41 18C41 16.3431 39.6569 15 38 15Z" fill="white"/>
</svg>
