<svg width="40" height="40" viewBox="0 0 40 40" fill="none" xmlns="http://www.w3.org/2000/svg">
<path d="M20 40C31.0457 40 40 31.0457 40 20C40 8.9543 31.0457 0 20 0C8.9543 0 0 8.9543 0 20C0 31.0457 8.9543 40 20 40Z" fill="#10B0E7"/>
<path d="M24.365 24.366C23.6048 25.1281 22.7015 25.7325 21.707 26.1444C20.7125 26.5563 19.6464 26.7675 18.57 26.766C17.4932 26.766 16.4269 26.5539 15.432 26.1418C14.4371 25.7298 13.5332 25.1257 12.7717 24.3643C12.0103 23.6028 11.4063 22.6988 10.9942 21.704C10.5821 20.7091 10.37 19.6429 10.37 18.566C10.37 16.3913 11.2339 14.3055 12.7717 12.7677C14.3095 11.2299 16.3952 10.366 18.57 10.366C20.7448 10.366 22.8305 11.2299 24.3683 12.7677C25.9061 14.3055 26.77 16.3913 26.77 18.566C26.7714 19.6425 26.5602 20.7085 26.1483 21.703C25.7364 22.6975 25.1321 23.6008 24.37 24.361L29.63 29.621L24.365 24.366Z" stroke="white"/>
</svg>
