<svg width="18" height="24" viewBox="0 0 18 24" fill="none" xmlns="http://www.w3.org/2000/svg">
<path d="M12.265 11.813L1.38899 20.743C1.20193 20.8804 1.04983 21.0599 0.944998 21.267C0.840164 21.4741 0.785538 21.7029 0.785538 21.935C0.785538 22.1671 0.840164 22.396 0.944998 22.603C1.04983 22.8101 1.20193 22.9896 1.38899 23.127C1.80639 23.4469 2.31761 23.6203 2.84349 23.6203C3.36938 23.6203 3.8806 23.4469 4.29799 23.127L16.616 13.013C16.7963 12.8795 16.9438 12.7066 17.0473 12.5075C17.1509 12.3085 17.2077 12.0884 17.2135 11.8641C17.2193 11.6398 17.1739 11.4172 17.0807 11.213C16.9876 11.0089 16.8492 10.8287 16.676 10.686L4.30599 0.493011C3.88833 0.173738 3.37721 0.000762939 2.85149 0.000762939C2.32578 0.000762939 1.81466 0.173738 1.39699 0.493011C1.20993 0.630413 1.05783 0.80991 0.952999 1.01699C0.848166 1.22406 0.793539 1.45291 0.793539 1.68501C0.793539 1.91711 0.848166 2.14596 0.952999 2.35303C1.05783 2.56011 1.20993 2.73961 1.39699 2.87701L12.265 11.813Z" fill="black"/>
</svg>
