<svg width="211" height="241" viewBox="0 0 211 241" fill="none" xmlns="http://www.w3.org/2000/svg">
<path d="M25.2859 43.1406L36.9739 17.8359H49.6262L31.1877 53.6328V74H19.4226V53.6328L0.984131 17.8359H13.675L25.2859 43.1406ZM99.7341 47.1909C99.7341 52.7199 98.7569 57.5674 96.8025 61.7334C94.8481 65.8994 92.045 69.1139 88.3933 71.377C84.7673 73.64 80.6013 74.7715 75.8953 74.7715C71.2406 74.7715 67.0875 73.6528 63.4358 71.4155C59.7841 69.1782 56.9553 65.9894 54.9495 61.8491C52.9436 57.6831 51.9278 52.8999 51.9021 47.4995V44.7222C51.9021 39.1932 52.8922 34.3328 54.8723 30.1411C56.8782 25.9237 59.6941 22.6963 63.3201 20.459C66.9718 18.196 71.1378 17.0645 75.8181 17.0645C80.4985 17.0645 84.6516 18.196 88.2776 20.459C91.9293 22.6963 94.7452 25.9237 96.7253 30.1411C98.7312 34.3328 99.7341 39.1803 99.7341 44.6836V47.1909ZM88.0076 44.645C88.0076 38.756 86.9532 34.2814 84.8445 31.2212C82.7358 28.161 79.727 26.6309 75.8181 26.6309C71.935 26.6309 68.939 28.1481 66.8303 31.1826C64.7216 34.1914 63.6544 38.6146 63.6287 44.4521V47.1909C63.6287 52.9256 64.683 57.3745 66.7917 60.5376C68.9005 63.7007 71.935 65.2822 75.8953 65.2822C79.7784 65.2822 82.7615 63.765 84.8445 60.7305C86.9275 57.6702 87.9819 53.2214 88.0076 47.3838V44.645ZM150.652 17.8359V54.8286C150.652 60.9748 148.723 65.8351 144.866 69.4097C141.034 72.9842 135.788 74.7715 129.128 74.7715C122.57 74.7715 117.363 73.0356 113.505 69.564C109.648 66.0923 107.68 61.3219 107.603 55.2529V17.8359H119.176V54.9058C119.176 58.5832 120.05 61.2705 121.799 62.9678C123.573 64.6393 126.016 65.4751 129.128 65.4751C135.634 65.4751 138.938 62.0549 139.041 55.2144V17.8359H150.652ZM180.933 53.4399H171.714V74H160.141V17.8359H181.01C187.645 17.8359 192.762 19.3146 196.363 22.272C199.963 25.2293 201.763 29.4082 201.763 34.8086C201.763 38.6403 200.927 41.842 199.256 44.4136C197.61 46.9595 195.102 48.991 191.734 50.5083L203.885 73.46V74H191.464L180.933 53.4399ZM171.714 44.0664H181.049C183.955 44.0664 186.205 43.3335 187.799 41.8677C189.393 40.3761 190.191 38.3317 190.191 35.7344C190.191 33.0856 189.432 31.0026 187.915 29.4854C186.423 27.9681 184.122 27.2095 181.01 27.2095H171.714V44.0664Z" fill="white"/>
<path d="M15.8752 183H6.50024V137.5H15.8752V183ZM48.1877 171.062C48.1877 169.292 47.5627 167.938 46.3127 167C45.0627 166.042 42.8127 165.042 39.5627 164C36.3127 162.938 33.7398 161.896 31.844 160.875C26.6773 158.083 24.094 154.323 24.094 149.594C24.094 147.135 24.7815 144.948 26.1565 143.031C27.5523 141.094 29.5419 139.583 32.1252 138.5C34.7294 137.417 37.6461 136.875 40.8752 136.875C44.1252 136.875 47.0211 137.469 49.5627 138.656C52.1044 139.823 54.0732 141.479 55.469 143.625C56.8857 145.771 57.594 148.208 57.594 150.938H48.219C48.219 148.854 47.5627 147.24 46.2502 146.094C44.9377 144.927 43.094 144.344 40.719 144.344C38.4273 144.344 36.6461 144.833 35.3752 145.812C34.1044 146.771 33.469 148.042 33.469 149.625C33.469 151.104 34.2086 152.344 35.6877 153.344C37.1877 154.344 39.3857 155.281 42.2815 156.156C47.6148 157.76 51.5002 159.75 53.9377 162.125C56.3752 164.5 57.594 167.458 57.594 171C57.594 174.938 56.1044 178.031 53.1252 180.281C50.1461 182.51 46.1357 183.625 41.094 183.625C37.594 183.625 34.4065 182.99 31.5315 181.719C28.6565 180.427 26.4586 178.667 24.9377 176.438C23.4377 174.208 22.6877 171.625 22.6877 168.688H32.094C32.094 173.708 35.094 176.219 41.094 176.219C43.3232 176.219 45.0627 175.771 46.3127 174.875C47.5627 173.958 48.1877 172.688 48.1877 171.062ZM117.281 161.281C117.281 165.76 116.49 169.688 114.906 173.062C113.323 176.438 111.052 179.042 108.094 180.875C105.156 182.708 101.781 183.625 97.969 183.625C94.1982 183.625 90.8336 182.719 87.8752 180.906C84.9169 179.094 82.6252 176.51 81.0002 173.156C79.3752 169.781 78.5523 165.906 78.5315 161.531V159.281C78.5315 154.802 79.3336 150.865 80.9377 147.469C82.5627 144.052 84.844 141.438 87.7815 139.625C90.7398 137.792 94.1148 136.875 97.9065 136.875C101.698 136.875 105.063 137.792 108 139.625C110.959 141.438 113.24 144.052 114.844 147.469C116.469 150.865 117.281 154.792 117.281 159.25V161.281ZM107.781 159.219C107.781 154.448 106.927 150.823 105.219 148.344C103.511 145.865 101.073 144.625 97.9065 144.625C94.7607 144.625 92.3336 145.854 90.6252 148.312C88.9169 150.75 88.0523 154.333 88.0315 159.062V161.281C88.0315 165.927 88.8857 169.531 90.594 172.094C92.3023 174.656 94.7607 175.938 97.969 175.938C101.115 175.938 103.531 174.708 105.219 172.25C106.906 169.771 107.761 166.167 107.781 161.438V159.219ZM158.531 137.5V167.469C158.531 172.448 156.969 176.385 153.844 179.281C150.74 182.177 146.49 183.625 141.094 183.625C135.781 183.625 131.563 182.219 128.438 179.406C125.313 176.594 123.719 172.729 123.656 167.812V137.5H133.031V167.531C133.031 170.51 133.74 172.688 135.156 174.062C136.594 175.417 138.573 176.094 141.094 176.094C146.365 176.094 149.042 173.323 149.125 167.781V137.5H158.531ZM183.063 166.344H175.594V183H166.219V137.5H183.125C188.5 137.5 192.646 138.698 195.563 141.094C198.479 143.49 199.938 146.875 199.938 151.25C199.938 154.354 199.261 156.948 197.906 159.031C196.573 161.094 194.542 162.74 191.813 163.969L201.656 182.562V183H191.594L183.063 166.344ZM175.594 158.75H183.156C185.511 158.75 187.334 158.156 188.625 156.969C189.917 155.76 190.563 154.104 190.563 152C190.563 149.854 189.948 148.167 188.719 146.938C187.511 145.708 185.646 145.094 183.125 145.094H175.594V158.75Z" fill="white"/>
<path d="M38.773 124H30.5699V106.938H14.5738V124H6.37067V84.1875H14.5738V100.32H30.5699V84.1875H38.773V124ZM69.9175 106.746H54.1675V117.41H72.6519V124H45.9644V84.1875H72.5972V90.832H54.1675V100.32H69.9175V106.746ZM99.941 115.797H85.5582L82.8238 124H74.1011L88.9214 84.1875H96.523L111.425 124H102.703L99.941 115.797ZM87.773 109.152H97.7261L92.7222 94.25L87.773 109.152ZM123.347 117.41H140.765V124H115.144V84.1875H123.347V117.41ZM169.832 90.832H157.636V124H149.433V90.832H137.402V84.1875H169.832V90.832ZM206.937 124H198.734V106.938H182.738V124H174.535V84.1875H182.738V100.32H198.734V84.1875H206.937V124Z" fill="white"/>
<path d="M11.4902 218.227V230H4.60541V196.586H17.6406C20.1497 196.586 22.3528 197.045 24.2499 197.963C26.1624 198.881 27.6311 200.189 28.6562 201.887C29.6813 203.57 30.1938 205.49 30.1938 207.647C30.1938 210.922 29.0693 213.507 26.8203 215.404C24.5865 217.286 21.4884 218.227 17.5258 218.227H11.4902ZM11.4902 212.65H17.6406C19.4612 212.65 20.8458 212.222 21.7944 211.365C22.7582 210.508 23.2402 209.285 23.2402 207.693C23.2402 206.056 22.7582 204.733 21.7944 203.723C20.8305 202.713 19.4995 202.193 17.8012 202.163H11.4902V212.65ZM47.3139 217.768H41.829V230H34.9443V196.586H47.3598C51.3071 196.586 54.3517 197.466 56.4936 199.225C58.6355 200.985 59.7065 203.471 59.7065 206.684C59.7065 208.963 59.2092 210.868 58.2148 212.398C57.2356 213.913 55.7439 215.121 53.7397 216.024L60.9687 229.679V230H53.579L47.3139 217.768ZM41.829 212.191H47.3828C49.1116 212.191 50.4503 211.755 51.3989 210.883C52.3474 209.996 52.8217 208.78 52.8217 207.234C52.8217 205.659 52.3704 204.419 51.4677 203.517C50.5803 202.614 49.211 202.163 47.3598 202.163H41.829V212.191ZM72.2827 230H65.3979V196.586H72.2827V230ZM106.133 214.05C106.133 217.34 105.551 220.224 104.389 222.702C103.226 225.181 101.558 227.093 99.3857 228.439C97.2285 229.786 94.7499 230.459 91.9501 230.459C89.1809 230.459 86.7101 229.793 84.5375 228.462C82.365 227.131 80.6821 225.234 79.4887 222.771C78.2953 220.292 77.691 217.447 77.6757 214.234V212.582C77.6757 209.292 78.2648 206.401 79.4428 203.907C80.6362 201.398 82.3115 199.478 84.4687 198.146C86.6412 196.8 89.1197 196.127 91.9042 196.127C94.6887 196.127 97.1596 196.8 99.3168 198.146C101.489 199.478 103.165 201.398 104.343 203.907C105.536 206.401 106.133 209.285 106.133 212.559V214.05ZM99.1562 212.536C99.1562 209.032 98.5289 206.37 97.2744 204.549C96.0198 202.729 94.2298 201.818 91.9042 201.818C89.594 201.818 87.8116 202.721 86.5571 204.526C85.3025 206.316 84.6676 208.948 84.6523 212.421V214.05C84.6523 217.462 85.2796 220.109 86.5341 221.991C87.7887 223.873 89.594 224.813 91.9501 224.813C94.2604 224.813 96.0351 223.911 97.2744 222.105C98.5136 220.285 99.1409 217.638 99.1562 214.165V212.536ZM123.505 217.768H118.02V230H111.136V196.586H123.551C127.498 196.586 130.543 197.466 132.685 199.225C134.827 200.985 135.898 203.471 135.898 206.684C135.898 208.963 135.401 210.868 134.406 212.398C133.427 213.913 131.935 215.121 129.931 216.024L137.16 229.679V230H129.77L123.505 217.768ZM118.02 212.191H123.574C125.303 212.191 126.642 211.755 127.59 210.883C128.539 209.996 129.013 208.78 129.013 207.234C129.013 205.659 128.562 204.419 127.659 203.517C126.772 202.614 125.402 202.163 123.551 202.163H118.02V212.191ZM148.474 230H141.589V196.586H148.474V230ZM179.341 202.163H169.105V230H162.221V202.163H152.123V196.586H179.341V202.163ZM195.176 211.641L202.129 196.586H209.657L198.687 217.883V230H191.687V217.883L180.718 196.586H188.268L195.176 211.641Z" fill="white"/>
</svg>
