<svg width="198" height="64" viewBox="0 0 198 64" fill="none" xmlns="http://www.w3.org/2000/svg">
<g filter="url(#filter0_d)">
<path d="M166 3H32C15.9837 3 3 15.9837 3 32C3 48.0163 15.9837 61 32 61H166C182.016 61 195 48.0163 195 32C195 15.9837 182.016 3 166 3Z" fill="url(#paint0_linear)"/>
</g>
<path d="M47.8251 37.1758H55.2899V40H44.3094V22.9375H47.8251V37.1758ZM62.9305 40.2344C61.0712 40.2344 59.5555 39.6641 58.3837 38.5234C57.2196 37.3828 56.6376 35.8633 56.6376 33.9648V33.6367C56.6376 32.3633 56.8837 31.2266 57.3759 30.2266C57.868 29.2188 58.5634 28.4453 59.4618 27.9062C60.368 27.3594 61.3993 27.0859 62.5555 27.0859C64.2899 27.0859 65.6532 27.6328 66.6454 28.7266C67.6454 29.8203 68.1454 31.3711 68.1454 33.3789V34.7617H60.0712C60.1805 35.5898 60.5087 36.2539 61.0555 36.7539C61.6102 37.2539 62.3094 37.5039 63.1532 37.5039C64.4579 37.5039 65.4774 37.0312 66.2118 36.0859L67.8759 37.9492C67.368 38.668 66.6805 39.2305 65.8134 39.6367C64.9462 40.0352 63.9852 40.2344 62.9305 40.2344ZM62.5438 29.8281C61.8719 29.8281 61.3251 30.0547 60.9032 30.5078C60.4891 30.9609 60.2235 31.6094 60.1063 32.4531H64.8173V32.1836C64.8016 31.4336 64.5985 30.8555 64.2079 30.4492C63.8173 30.0352 63.2626 29.8281 62.5438 29.8281ZM74.1337 24.2031V27.3203H76.3016V29.8047H74.1337V36.1328C74.1337 36.6016 74.2235 36.9375 74.4032 37.1406C74.5829 37.3438 74.9266 37.4453 75.4344 37.4453C75.8094 37.4453 76.1415 37.418 76.4305 37.3633V39.9297C75.7665 40.1328 75.0829 40.2344 74.3798 40.2344C72.0048 40.2344 70.7938 39.0352 70.7469 36.6367V29.8047H68.8954V27.3203H70.7469V24.2031H74.1337ZM80.1102 23.7227L79.7704 28.457H77.6259V22H80.1102V23.7227ZM87.868 36.4961C87.868 36.082 87.661 35.7578 87.2469 35.5234C86.8407 35.2812 86.1844 35.0664 85.2782 34.8789C82.2626 34.2461 80.7548 32.9648 80.7548 31.0352C80.7548 29.9102 81.2196 28.9727 82.1493 28.2227C83.0868 27.4648 84.3094 27.0859 85.8173 27.0859C87.4266 27.0859 88.7118 27.4648 89.6727 28.2227C90.6415 28.9805 91.1259 29.9648 91.1259 31.1758H87.7391C87.7391 30.6914 87.5829 30.293 87.2704 29.9805C86.9579 29.6602 86.4696 29.5 85.8055 29.5C85.2352 29.5 84.7938 29.6289 84.4813 29.8867C84.1688 30.1445 84.0126 30.4727 84.0126 30.8711C84.0126 31.2461 84.1884 31.5508 84.5399 31.7852C84.8993 32.0117 85.5009 32.2109 86.3446 32.3828C87.1884 32.5469 87.8993 32.7344 88.4774 32.9453C90.2665 33.6016 91.161 34.7383 91.161 36.3555C91.161 37.5117 90.6649 38.4492 89.6727 39.168C88.6805 39.8789 87.3993 40.2344 85.829 40.2344C84.7665 40.2344 83.8212 40.0469 82.993 39.6719C82.1727 39.2891 81.5282 38.7695 81.0594 38.1133C80.5907 37.4492 80.3563 36.7344 80.3563 35.9688H83.5673C83.5985 36.5703 83.8212 37.0312 84.2352 37.3516C84.6493 37.6719 85.204 37.832 85.8993 37.832C86.5477 37.832 87.036 37.7109 87.3641 37.4688C87.7001 37.2188 87.868 36.8945 87.868 36.4961ZM113.052 37.8438C112.419 38.6016 111.524 39.1914 110.368 39.6133C109.212 40.0273 107.931 40.2344 106.524 40.2344C105.048 40.2344 103.751 39.9141 102.634 39.2734C101.524 38.625 100.665 37.6875 100.056 36.4609C99.454 35.2344 99.1454 33.793 99.1298 32.1367V30.9766C99.1298 29.2734 99.4149 27.8008 99.9852 26.5586C100.563 25.3086 101.391 24.3555 102.47 23.6992C103.556 23.0352 104.825 22.7031 106.278 22.7031C108.302 22.7031 109.884 23.1875 111.024 24.1562C112.165 25.1172 112.841 26.5195 113.052 28.3633H109.63C109.474 27.3867 109.126 26.6719 108.587 26.2188C108.056 25.7656 107.321 25.5391 106.384 25.5391C105.188 25.5391 104.278 25.9883 103.653 26.8867C103.028 27.7852 102.712 29.1211 102.704 30.8945V31.9844C102.704 33.7734 103.044 35.125 103.724 36.0391C104.403 36.9531 105.399 37.4102 106.712 37.4102C108.032 37.4102 108.974 37.1289 109.536 36.5664V33.625H106.337V31.0352H113.052V37.8438ZM115.161 33.543C115.161 32.2852 115.403 31.1641 115.888 30.1797C116.372 29.1953 117.067 28.4336 117.974 27.8945C118.888 27.3555 119.946 27.0859 121.149 27.0859C122.86 27.0859 124.255 27.6094 125.333 28.6562C126.419 29.7031 127.024 31.125 127.149 32.9219L127.173 33.7891C127.173 35.7344 126.63 37.2969 125.544 38.4766C124.458 39.6484 123.001 40.2344 121.173 40.2344C119.345 40.2344 117.884 39.6484 116.79 38.4766C115.704 37.3047 115.161 35.7109 115.161 33.6953V33.543ZM118.548 33.7891C118.548 34.9922 118.774 35.9141 119.227 36.5547C119.681 37.1875 120.329 37.5039 121.173 37.5039C121.993 37.5039 122.634 37.1914 123.095 36.5664C123.556 35.9336 123.786 34.9258 123.786 33.543C123.786 32.3633 123.556 31.4492 123.095 30.8008C122.634 30.1523 121.985 29.8281 121.149 29.8281C120.321 29.8281 119.681 30.1523 119.227 30.8008C118.774 31.4414 118.548 32.4375 118.548 33.7891Z" fill="black"/>
<path d="M152.265 31.813L141.389 40.743C141.202 40.8804 141.05 41.0599 140.945 41.267C140.84 41.4741 140.786 41.7029 140.786 41.935C140.786 42.1671 140.84 42.396 140.945 42.603C141.05 42.8101 141.202 42.9896 141.389 43.127C141.806 43.4469 142.318 43.6203 142.843 43.6203C143.369 43.6203 143.881 43.4469 144.298 43.127L156.616 33.013C156.796 32.8795 156.944 32.7066 157.047 32.5075C157.151 32.3085 157.208 32.0884 157.213 31.8641C157.219 31.6398 157.174 31.4172 157.081 31.213C156.988 31.0089 156.849 30.8287 156.676 30.686L144.306 20.493C143.888 20.1737 143.377 20.0008 142.851 20.0008C142.326 20.0008 141.815 20.1737 141.397 20.493C141.21 20.6304 141.058 20.8099 140.953 21.017C140.848 21.2241 140.794 21.4529 140.794 21.685C140.794 21.9171 140.848 22.146 140.953 22.353C141.058 22.5601 141.21 22.7396 141.397 22.877L152.265 31.813Z" fill="black"/>
<defs>
<filter id="filter0_d" x="0" y="0" width="198" height="64" filterUnits="userSpaceOnUse" color-interpolation-filters="sRGB">
<feFlood flood-opacity="0" result="BackgroundImageFix"/>
<feColorMatrix in="SourceAlpha" type="matrix" values="0 0 0 0 0 0 0 0 0 0 0 0 0 0 0 0 0 0 127 0"/>
<feOffset/>
<feGaussianBlur stdDeviation="1.5"/>
<feColorMatrix type="matrix" values="0 0 0 0 0 0 0 0 0 0 0 0 0 0 0 0 0 0 0.161 0"/>
<feBlend mode="normal" in2="BackgroundImageFix" result="effect1_dropShadow"/>
<feBlend mode="normal" in="SourceGraphic" in2="effect1_dropShadow" result="shape"/>
</filter>
<linearGradient id="paint0_linear" x1="99" y1="3" x2="99" y2="61" gradientUnits="userSpaceOnUse">
<stop stop-color="white"/>
<stop offset="1" stop-color="#EFEFEF"/>
</linearGradient>
</defs>
</svg>
